# xmcd
# Copyright (C) 1995-1998 Ti Kan
#
# Track frame offsets:
#       150
#       15151
#       29616
#       45290
#       59956
#       73959
#       88183
#       106179
#       121052
#       136440
#       150892
#       165949
#
# Disc length: 2419 seconds
#
# Revision: 0
# Processed by: cddbd v1.5.2PL0 Copyright (c) Steve Scherf et al.
# Submitted via: CD-Transfer v1.0
#
DISCID=9209710c
DTITLE=Alpenland/Géraldino Olivier - 
DYEAR=1900
DGENRE=
TTITLE0=Alles Aus Liebe
TTITLE1=Du Bis Wie Sommer
TTITLE2=Wann Geht Die Nach Vorbei
TTITLE3=Mit Dir Gemeinsam Zu Densternen
TTITLE4=Lass'mal Fünfe Gerade Sein
TTITLE5=Wann Hast Du Endlich Wieder Zeit Für Mich
TTITLE6=Licht Am Horizont
TTITLE7=Im Land Der Träume
TTITLE8=Wer Hat Eigentlich Gesagt
TTITLE9=Du Bist Da
TTITLE10=Du Lässt Die Sonne In Mein Herz
TTITLE11=Was Kostet Die Welt
EXTD=
EXTT0=
EXTT1=
EXTT2=
EXTT3=
EXTT4=
EXTT5=
EXTT6=
EXTT7=
EXTT8=
EXTT9=
EXTT10=
EXTT11=
PLAYORDER=
